<?xml version="1.0" encoding="utf-8"?>
<!-- Generator: Adobe Illustrator 26.2.1, SVG Export Plug-In . SVG Version: 6.00 Build 0)  -->
<svg version="1.1" id="Layer_1" xmlns="http://www.w3.org/2000/svg" xmlns:xlink="http://www.w3.org/1999/xlink" x="0px" y="0px"
	 viewBox="0 0 226.7 144.9" style="enable-background:new 0 0 226.7 144.9;" xml:space="preserve">
<style type="text/css">
	.st0{fill:#3A3A3A;}
	.st1{fill:#303030;}
	.st2{fill:#00BF00;}
</style>
<path class="st0" d="M17.8,30.7c0-5.8,4.4-10.5,9.9-10.5h0.7c5.5,0,9.9,4.7,9.9,10.5s-4.4,10.5-9.9,10.5h-0.7
	C22.2,41.2,17.8,36.5,17.8,30.7z M64.2,39h3.2c5.8-8.1,13.9-14.5,23.4-18H64.2c-5.5,0-9.9,4-9.9,9S58.7,39,64.2,39z M8.4,48.7
	c1.4-0.1,2.5-1.3,2.5-2.7c0-1.5-1.1-2.7-2.5-2.7C7,43.4,5.9,44.6,5.9,46S7,48.6,8.4,48.7z M179.7,36.7c3.8-0.1,6.7-3.2,6.6-7
	c0.1-3.7-2.8-6.9-6.6-7c-3.8,0.1-6.7,3.2-6.6,7C173,33.5,176,36.6,179.7,36.7z M149,39c5.5,0,9.8-4,9.8-9s-4.4-9-9.9-9h-23.4
	C135.1,24.5,143.2,30.9,149,39z M138.4,10.6c2.8-0.1,5.1-2.4,5-5.3c0.1-2.8-2.1-5.2-5-5.3c-2.8,0.1-5.1,2.4-5,5.3
	C133.3,8.2,135.5,10.6,138.4,10.6z M75,111.8c-0.1,0.4-0.7,0.6-2.4-0.7c-3-2.3-9.7-9-9.7-9v-13c-3-6.4-4.7-13.6-4.7-21.2
	c0-3,0.3-5.9,0.8-8.8H19.1c-5.5,0-9.9,4-9.9,9s4.4,9,9.9,9h25.6c2.8,0.1,5.5,1.1,7.6,3c2,1.8,3.2,4.4,3.2,7.1
	c0.1,2.7-1.1,5.3-3.2,7.1c-1.9,1.7-4.5,2.8-7.1,2.9H13.7c-5.5,0-9.9,4-9.9,9s4.4,9,9.9,9H75V111.8z M3.8,122.3
	c-0.2,0-0.2,0.1-0.3,0.2c0,0.1,0,0.2,0,0.3c0,0.1,0.1,0.2,0.2,0.3c0.1,0,0.2,0,0.3,0c2-0.5,4,0.5,5,2.2c0.9,2,0.4,4.2-1.2,5.6
	c-1.6,1.3-3.9,1.2-5.4-0.2c-1.6-1.4-1.9-3.7-0.9-5.6c0.1-0.2,0-0.5-0.2-0.6c-0.3-0.1-0.5,0-0.6,0.2c-1.2,2.3-0.8,5,1,6.8
	c0.9,0.9,2.1,1.3,3.4,1.4c1.1,0,2.2-0.4,3.1-1.1c2-1.7,2.6-4.4,1.5-6.7C8.7,122.9,6.2,121.7,3.8,122.3z M190.3,97.3H155v18h35.3
	c5.5,0,9.9-4,9.9-9S195.8,97.3,190.3,97.3z M222.4,87.3c-3.6-2.6-8.7-2-11.7,1.3c-3.1,3.4-3.6,8.5-1.1,12.5c1.6,2.7,4.6,4.4,7.8,4.5
	c1.2,0,2.4-0.2,3.5-0.7c0.3-0.1,0.5-0.4,0.6-0.7c0.1-0.3,0.1-0.7-0.1-1c-0.4-0.6-1.1-0.9-1.8-0.6c-3.1,1.1-6.5-0.2-8.1-3
	c-1.7-2.9-1.3-6.5,0.9-9c2.2-2.4,5.8-2.9,8.5-1.1c2.8,1.9,3.9,5.3,2.9,8.5c-0.2,0.7,0,1.5,0.6,1.9c0.2,0.2,0.6,0.2,0.9,0.1
	c0.3-0.1,0.6-0.4,0.7-0.7C227.6,94.9,226.2,90,222.4,87.3z M195.6,59.1h-38.2c0.5,2.9,0.8,5.8,0.8,8.8c0,3.1-0.3,6.2-0.9,9.2h38.3
	c5.5,0,9.9-4,9.9-9S201.1,59.1,195.6,59.1z M111.5,126.9H46.8c-5.5,0-9.9,4-9.9,9s4.4,9,9.9,9h64.7c5.5,0,9.9-4,9.9-9
	S117,126.9,111.5,126.9z M184,134.8c-1.6,1.3-2.2,3.6-1.3,5.5c0.6,1.5,2.1,2.6,3.9,2.5c0.3,0,0.7,0,1-0.1c1.1-0.3,2-1,2.6-2
	c1-1.8,0.7-4.1-0.8-5.6S185.6,133.5,184,134.8z"/>
<path class="st1" d="M164.8,69.6c-0.2,11.4-3.8,21.9-9.8,30.6v-4c1.3-2.1,2.4-4.4,3.4-6.7c2.7-6.3,4.1-13,4.2-19.9H164.8z
	 M52.6,69.6C52.8,81,56.5,91.9,62.9,101v-4.1C58,89,55,79.6,54.8,69.6H52.6z M75,113.6v-1.8c-0.1,0.4-0.7,0.6-2.4-0.7
	c-1.6-1.3-4.4-3.8-6.5-5.9c0.9,1,1.8,2.1,2.7,3.1C70.7,110.1,72.8,111.9,75,113.6z M148.6,28.7c-10.3-10.3-24.2-16.2-38.7-16.5
	c-31.1-0.6-56.7,24.1-57.3,55.1h2.3c0.1-6.9,1.5-13.6,4.2-19.9c8.3-19.5,27.3-32.4,48.6-32.9c29.8-0.6,54.5,23,55.1,52.8h2.2
	C164.8,52.8,158.9,39,148.6,28.7z M75,117.9c-3.1-2.1-5.9-4.5-8.6-7.1c-5.4-5.5-9.8-12-12.8-19.1c-3.1-7.3-4.7-15.3-4.7-23.3
	s1.6-15.9,4.7-23.3c3-7.1,7.4-13.6,12.9-19c5.5-5.5,12-9.9,19.1-12.9c7-3,14.5-4.6,22.1-4.7V6c-8,0.1-15.8,1.8-23.1,4.9
	c-7.5,3.2-14.2,7.7-19.9,13.4S54.4,36.7,51.2,44.1C48,51.8,46.3,60,46.3,68.4c0,8.3,1.6,16.6,4.9,24.3c3.1,7.5,7.7,14.2,13.4,19.9
	c3.2,3.2,6.7,6,10.4,8.4V117.9z M166.6,44.2c-3.1-7.5-7.7-14.2-13.4-19.9S140.7,14,133.3,10.9C126,7.8,118.1,6.1,110.2,6v2.5
	c7.6,0.1,15.1,1.7,22.1,4.7c7.2,3.1,13.6,7.4,19.1,12.9c5.4,5.5,9.8,12,12.8,19.1c3.1,7.3,4.7,15.3,4.7,23.3s-1.6,15.9-4.7,23.3
	c-2.4,5.5-5.4,10.5-9.2,15v4c4.9-5.3,8.8-11.4,11.6-18c3.2-7.7,4.9-15.9,4.9-24.3C171.5,60.2,169.9,51.9,166.6,44.2z M82.6,125.2
	c0.6,0.3,1.3,0.6,1.9,0.8c7.3,3.1,15.2,4.8,23.1,4.9v-2.6c-6.1-0.1-12.2-1.2-18-3.1C89.6,125.2,82.6,125.2,82.6,125.2z M128.4,125.2
	c-5.9,2.1-12.1,3.2-18.3,3.2v2.5c7.9-0.1,15.7-1.8,23.2-4.8c0.7-0.3,1.4-0.6,2.1-0.9C135.4,125.2,128.4,125.2,128.4,125.2z"/>
<path id="Union_4" class="st2" d="M62.9,127.9c-1.1,0-1.9-0.9-1.9-1.9c0-1.1,0.9-1.9,1.9-1.9l0,0h11.4V113c-7.5-1-13-7.3-13-14.8V77
	c0-8.3,6.7-15,14.9-15c3,0,6,0.9,8.5,2.6c0.1,0.1,0.2,0.1,0.3,0.2v-32h-2.6c-1.1,0-1.9-0.9-1.9-1.9c0-1.1,0.9-1.9,1.9-1.9H139
	c1.1,0,1.9,0.9,1.9,1.9c0,1.1-0.9,1.9-1.9,1.9h-2.6v6c0,1.1-0.9,1.9-1.9,1.9c-1.1,0-1.9-0.9-1.9-1.9l0,0v-6H88.8v36
	c1.6,2.4,2.4,5.2,2.4,8.1v21.2c0,3.1-0.9,6-2.7,8.5v5.9c2.1-0.7,4.3-0.7,6.4-0.2c1.3,0.2,3.8,1.9,3.8,1.9c1.3,1,2.3,2.2,3.1,3.6
	c4.4-1.2,9,1.5,10.2,5.9c0,0.1,0,0.2,0.1,0.3h0.2V76.6c0-0.9,0.8-1.7,1.7-1.7h1.7v-9.7c0-0.9,0.8-1.7,1.7-1.7h5.3v-1.7
	c0-6,4.4-11,10.3-11.9c0.1,0,0.3-0.1,0.4-0.1c-0.8-0.7-1-1.9-0.3-2.7s1.9-1,2.7-0.3s1,1.9,0.3,2.7c0,0.1-0.1,0.1-0.1,0.2l-0.1,0.1
	c0.4,0,0.6,0.1,0.6,0.1c5.9,0.9,10.3,5.9,10.3,11.9v1.7h5.3c0.9,0,1.7,0.8,1.7,1.7v9.7h1.7c0.9,0,1.7,0.8,1.7,1.7V124h6.4
	c1.1,0,1.9,0.9,1.9,1.9s-0.9,1.9-1.9,1.9l0,0L62.9,127.9z M140.4,81.9c0.9,0,1.7,0.8,1.7,1.7v40.5h11.5V78.4h-38v45.7h11.5V83.6
	c0-0.9,0.8-1.7,1.7-1.7H140.4z M130.7,124h8V85.3h-8V124z M79.2,123.7c-0.1,0.1-0.2,0.3-0.2,0.4h29.1c-1-2.3-3.7-3.3-6-2.2
	c-0.1,0.1-0.2,0.1-0.3,0.2c-0.9,0.5-2.1,0.2-2.6-0.7c-0.1-0.1-0.1-0.2-0.1-0.3c-1-2.9-3.6-4.9-6.7-5.1c-0.1,0-0.2,0-0.3,0
	c-2.9,0-5.6,1.7-6.8,4.4c-0.3,0.7-1,1.1-1.8,1.1h-0.1c-0.1,0-0.2,0-0.3,0C81.5,121.5,80,122.3,79.2,123.7z M78.2,113v6.2
	c1.2-0.9,2.6-1.4,4.1-1.6c0.6-1.1,1.4-2.1,2.4-2.9v-4.2C82.7,111.9,80.5,112.7,78.2,113L78.2,113z M78.2,90.5V109
	c5.3-0.9,9.2-5.6,9.2-11V76.8c0-6.1-5-11.1-11.1-11.1s-11.1,5-11.1,11.1V98c0,5.4,3.9,10,9.2,11V90.5c0-1.1,0.9-1.9,1.9-1.9
	C77.3,88.7,78.2,89.5,78.2,90.5L78.2,90.5z M146.7,72v2.9h3.5v-8h-31.1v8h3.5V72c0-0.9,0.8-1.7,1.7-1.7s1.7,0.8,1.7,1.7v2.9h3.4V72
	c0-0.9,0.8-1.7,1.7-1.7s1.7,0.8,1.7,1.7v2.9h3.4V72c0-0.9,0.8-1.7,1.7-1.7s1.7,0.8,1.7,1.7v2.9h3.4V72c0-0.9,0.8-1.7,1.7-1.7
	C146,70.4,146.7,71.2,146.7,72L146.7,72z M126.1,61.9v1.7h17.2v-1.7c0.1-4.7-3.7-8.6-8.5-8.7c-4.7-0.1-8.6,3.7-8.7,8.5
	C126.2,61.7,126.2,61.8,126.1,61.9L126.1,61.9z M104.2,101.2v-8.6c0-1.1,0.9-1.9,1.9-1.9s1.9,0.9,1.9,1.9v8.6c0,1.1-0.9,1.9-1.9,1.9
	S104.2,102.3,104.2,101.2L104.2,101.2z M104.2,82.2v-8.6c0-1.1,0.9-1.9,1.9-1.9s1.9,0.9,1.9,1.9l0,0v8.6c0,1.1-0.9,1.9-1.9,1.9
	S104.2,83.3,104.2,82.2L104.2,82.2z M74.7,82.5c-0.2-1,0.5-2.1,1.5-2.3c1-0.2,2.1,0.5,2.3,1.5c0.2,1-0.5,2.1-1.5,2.3
	c-0.1,0-0.2,0-0.4,0C75.7,84,74.9,83.5,74.7,82.5L74.7,82.5z M104.2,66.5v-8.6c0-1.1,0.9-1.9,1.9-1.9s1.9,0.9,1.9,1.9v8.6
	c0,1.1-0.9,1.9-1.9,1.9S104.2,67.5,104.2,66.5L104.2,66.5z M96.2,66.5v-8.6c0-1.1,0.9-1.9,1.9-1.9s1.9,0.9,1.9,1.9v8.6
	c0,1.1-0.9,1.9-1.9,1.9S96.2,67.5,96.2,66.5L96.2,66.5z M96.2,50.5v-8.6c0-1.1,0.9-1.9,1.9-1.9s1.9,0.9,1.9,1.9v8.6
	c0,1.1-0.9,1.9-1.9,1.9S96.2,51.7,96.2,50.5L96.2,50.5z M112.2,50.5v-8.6c0-1.1,0.9-1.9,1.9-1.9s1.9,0.9,1.9,1.9v8.6
	c0,1.1-0.9,1.9-1.9,1.9S112.2,51.7,112.2,50.5L112.2,50.5L112.2,50.5z M104.2,50.5v-8.6c0-1.1,0.9-1.9,1.9-1.9s1.9,0.9,1.9,1.9v8.6
	c0,1.1-0.9,1.9-1.9,1.9S104.2,51.7,104.2,50.5L104.2,50.5L104.2,50.5z M77.6,26.5c-1.1,0-1.9-0.9-1.9-1.9c0-1.1,0.9-1.9,1.9-1.9l0,0
	h65.6c1.1,0,1.9,0.9,1.9,1.9c0,1.1-0.9,1.9-1.9,1.9l0,0H77.6z"/>
</svg>
